<svg width="675.3125" height="190.34" viewBox="0 56.25 675.3125 190.34" class="mnx-notation-svg"><g class="enclosure enc-cell" style=""><rect x="104.2022705078125" y="113.5" width="23" height="23" rx="3" stroke-width="1.2" data-projection="notation" data-system-row="0"></rect></g><style>:where(svg&gt;text){font-family:Bravura;fill:currentColor}:where(svg&gt;line,svg&gt;path){stroke:currentColor}</style><line x1="18.1818" y1="80" x2="363.2244" y2="80" stroke-width="1.3" class="staff-line"></line><line x1="18.1818" y1="90" x2="363.2244" y2="90" stroke-width="1.3" class="staff-line"></line><line x1="18.1818" y1="100" x2="363.2244" y2="100" stroke-width="1.3" class="staff-line"></line><line x1="18.1818" y1="110" x2="363.2244" y2="110" stroke-width="1.3" class="staff-line"></line><line x1="18.1818" y1="120" x2="363.2244" y2="120" stroke-width="1.3" class="staff-line"></line><text x="20.6818" y="110" font-size="40" class="clef"></text><text x="62.5909" y="100" font-size="40" text-anchor="middle" class="time-sig"></text><text x="98.3383" y="125" font-size="40" style="fill:oklch(0.7 0.15 190)" class="accidental selected"></text><text x="109.7019" y="125" font-size="40" style="fill:oklch(0.7 0.15 190)" class="notehead selected" data-source-id="n-1-1-v1-0-0"></text><line x1="121.5019" y1="90" x2="121.5019" y2="123.32" stroke-width="1.2" style="stroke:oklch(0.7 0.15 190)" class="stem selected"></line><text x="168.633" y="125" font-size="40" class="accidental"></text><text x="179.9967" y="125" font-size="40" class="notehead" data-source-id="n-1-1-v1-1-0"></text><line x1="191.7967" y1="90" x2="191.7967" y2="123.32" stroke-width="1.2" class="stem"></line><text x="238.9278" y="125" font-size="40" class="accidental"></text><text x="250.2914" y="125" font-size="40" class="notehead" data-source-id="n-1-1-v1-2-0"></text><line x1="262.0914" y1="90" x2="262.0914" y2="123.32" stroke-width="1.2" class="stem"></line><text x="309.2225" y="125" font-size="40" class="accidental"></text><text x="320.5862" y="125" font-size="40" class="notehead" data-source-id="n-1-1-v1-3-0"></text><line x1="332.3862" y1="90" x2="332.3862" y2="123.32" stroke-width="1.2" class="stem"></line><line x1="363.2244" y1="80" x2="363.2244" y2="120" stroke-width="1.6" class="barline"></line><text x="20.1818" y="71" font-size="13" style="font-family:var(--font-family-sans)" class="measure-number">1</text><line x1="363.2244" y1="80" x2="657.1307" y2="80" stroke-width="1.3" class="staff-line"></line><line x1="363.2244" y1="90" x2="657.1307" y2="90" stroke-width="1.3" class="staff-line"></line><line x1="363.2244" y1="100" x2="657.1307" y2="100" stroke-width="1.3" class="staff-line"></line><line x1="363.2244" y1="110" x2="657.1307" y2="110" stroke-width="1.3" class="staff-line"></line><line x1="363.2244" y1="120" x2="657.1307" y2="120" stroke-width="1.3" class="staff-line"></line><line x1="399.6082" y1="130" x2="419.4082" y2="130" stroke-width="1.6" class="ledger-line"></line><text x="392.2445" y="130" font-size="40" class="accidental"></text><text x="403.6082" y="130" font-size="40" class="notehead" data-source-id="n-1-2-v1-0-0"></text><line x1="415.4082" y1="95" x2="415.4082" y2="128.32" stroke-width="1.2" class="stem"></line><line x1="469.9029" y1="130" x2="489.7029" y2="130" stroke-width="1.6" class="ledger-line"></line><text x="462.5393" y="130" font-size="40" class="accidental"></text><text x="473.9029" y="130" font-size="40" class="notehead" data-source-id="n-1-2-v1-1-0"></text><line x1="485.7029" y1="95" x2="485.7029" y2="128.32" stroke-width="1.2" class="stem"></line><line x1="540.1977" y1="130" x2="559.9977" y2="130" stroke-width="1.6" class="ledger-line"></line><text x="532.834" y="130" font-size="40" class="accidental"></text><text x="544.1977" y="130" font-size="40" class="notehead" data-source-id="n-1-2-v1-2-0"></text><line x1="555.9977" y1="95" x2="555.9977" y2="128.32" stroke-width="1.2" class="stem"></line><line x1="610.4924" y1="130" x2="630.2924" y2="130" stroke-width="1.6" class="ledger-line"></line><text x="603.1288" y="130" font-size="40" class="accidental"></text><text x="614.4924" y="130" font-size="40" class="notehead" data-source-id="n-1-2-v1-3-0"></text><line x1="626.2924" y1="95" x2="626.2924" y2="128.32" stroke-width="1.2" class="stem"></line><line x1="657.1307" y1="80" x2="657.1307" y2="120" stroke-width="1.6" class="barline"></line><line x1="18.1818" y1="177.67" x2="338.8608" y2="177.67" stroke-width="1.3" class="staff-line"></line><line x1="18.1818" y1="187.67" x2="338.8608" y2="187.67" stroke-width="1.3" class="staff-line"></line><line x1="18.1818" y1="197.67" x2="338.8608" y2="197.67" stroke-width="1.3" class="staff-line"></line><line x1="18.1818" y1="207.67" x2="338.8608" y2="207.67" stroke-width="1.3" class="staff-line"></line><line x1="18.1818" y1="217.67" x2="338.8608" y2="217.67" stroke-width="1.3" class="staff-line"></line><text x="20.6818" y="207.67" font-size="40" class="clef"></text><text x="73.9746" y="222.67" font-size="40" class="accidental"></text><text x="85.3383" y="222.67" font-size="40" class="notehead" data-source-id="n-1-3-v1-0-0"></text><line x1="97.1383" y1="187.67" x2="97.1383" y2="220.99" stroke-width="1.2" class="stem"></line><text x="144.2694" y="222.67" font-size="40" class="accidental"></text><text x="155.633" y="222.67" font-size="40" class="notehead" data-source-id="n-1-3-v1-1-0"></text><line x1="167.433" y1="187.67" x2="167.433" y2="220.99" stroke-width="1.2" class="stem"></line><text x="214.5641" y="222.67" font-size="40" class="accidental"></text><text x="225.9278" y="222.67" font-size="40" class="notehead" data-source-id="n-1-3-v1-2-0"></text><line x1="237.7278" y1="187.67" x2="237.7278" y2="220.99" stroke-width="1.2" class="stem"></line><text x="284.8589" y="222.67" font-size="40" class="accidental"></text><text x="296.2225" y="222.67" font-size="40" class="notehead" data-source-id="n-1-3-v1-3-0"></text><line x1="308.0225" y1="187.67" x2="308.0225" y2="220.99" stroke-width="1.2" class="stem"></line><line x1="338.8608" y1="177.67" x2="338.8608" y2="217.67" stroke-width="1.6" class="barline"></line><text x="20.1818" y="168.67" font-size="13" style="font-family:var(--font-family-sans)" class="measure-number">3</text><line x1="338.8608" y1="177.67" x2="632.767" y2="177.67" stroke-width="1.3" class="staff-line"></line><line x1="338.8608" y1="187.67" x2="632.767" y2="187.67" stroke-width="1.3" class="staff-line"></line><line x1="338.8608" y1="197.67" x2="632.767" y2="197.67" stroke-width="1.3" class="staff-line"></line><line x1="338.8608" y1="207.67" x2="632.767" y2="207.67" stroke-width="1.3" class="staff-line"></line><line x1="338.8608" y1="217.67" x2="632.767" y2="217.67" stroke-width="1.3" class="staff-line"></line><line x1="375.2445" y1="227.67" x2="395.0445" y2="227.67" stroke-width="1.6" class="ledger-line"></line><text x="367.8809" y="227.67" font-size="40" class="accidental"></text><text x="379.2445" y="227.67" font-size="40" class="notehead" data-source-id="n-1-4-v1-0-0"></text><line x1="391.0445" y1="192.67" x2="391.0445" y2="225.99" stroke-width="1.2" class="stem"></line><line x1="445.5393" y1="227.67" x2="465.3393" y2="227.67" stroke-width="1.6" class="ledger-line"></line><text x="438.1756" y="227.67" font-size="40" class="accidental"></text><text x="449.5393" y="227.67" font-size="40" class="notehead" data-source-id="n-1-4-v1-1-0"></text><line x1="461.3393" y1="192.67" x2="461.3393" y2="225.99" stroke-width="1.2" class="stem"></line><line x1="515.834" y1="227.67" x2="535.634" y2="227.67" stroke-width="1.6" class="ledger-line"></line><text x="508.4704" y="227.67" font-size="40" class="accidental"></text><text x="519.834" y="227.67" font-size="40" class="notehead" data-source-id="n-1-4-v1-2-0"></text><line x1="531.634" y1="192.67" x2="531.634" y2="225.99" stroke-width="1.2" class="stem"></line><line x1="586.1288" y1="227.67" x2="605.9288" y2="227.67" stroke-width="1.6" class="ledger-line"></line><text x="578.7651" y="227.67" font-size="40" class="accidental"></text><text x="590.1288" y="227.67" font-size="40" class="notehead" data-source-id="n-1-4-v1-3-0"></text><line x1="601.9288" y1="192.67" x2="601.9288" y2="225.99" stroke-width="1.2" class="stem"></line><line x1="624.767" y1="177.67" x2="624.767" y2="217.67" stroke-width="1.6" class="barline barline-final-thin"></line><rect x="627.767" y="177.67" width="5" height="40" fill="currentColor" class="barline barline-final-thick"></rect></svg>