<svg width="1280" height="320" viewBox="0 0 1280 320" xmlns="http://www.w3.org/2000/svg">
<style>:where(svg>text){font-family:Bravura;fill:currentColor}:where(svg>line,svg>path){stroke:currentColor}</style>
<line x1="32" y1="128" x2="584.8" y2="128" stroke-width="2.08" class="staff-line"></line>
<line x1="32" y1="144" x2="584.8" y2="144" stroke-width="2.08" class="staff-line"></line>
<line x1="32" y1="160" x2="584.8" y2="160" stroke-width="2.08" class="staff-line"></line>
<line x1="32" y1="176" x2="584.8" y2="176" stroke-width="2.08" class="staff-line"></line>
<line x1="32" y1="192" x2="584.8" y2="192" stroke-width="2.08" class="staff-line"></line>
<text x="36" y="176" font-size="64" class="clef"></text>
<text x="104" y="144" font-size="64" text-anchor="middle" class="time-sig-num"></text>
<text x="104" y="176" font-size="64" text-anchor="middle" class="time-sig-den"></text>
<text x="170.56" y="152" font-size="64" class="notehead" data-source-id="@m0.v0.e0.n0"></text>
<line x1="170.56" y1="154.688" x2="170.56" y2="208" stroke-width="1.92" class="stem"></line>
<text x="282.56" y="136" font-size="64" class="notehead" data-source-id="@m0.v0.e1.n0"></text>
<line x1="282.56" y1="138.688" x2="282.56" y2="192" stroke-width="1.92" class="stem"></line>
<text x="394.56" y="136" font-size="64" class="notehead" data-source-id="note3"></text>
<line x1="394.56" y1="138.688" x2="394.56" y2="192" stroke-width="1.92" class="stem"></line>
<text x="506.56" y="152" font-size="64" class="notehead" data-source-id="@m0.v0.e3.n0"></text>
<line x1="506.56" y1="154.688" x2="506.56" y2="208" stroke-width="1.92" class="stem"></line>
<line x1="584.8" y1="128" x2="584.8" y2="192" stroke-width="2.56" class="barline"></line>
<line x1="584.8" y1="128" x2="919.2" y2="128" stroke-width="2.08" class="staff-line"></line>
<line x1="584.8" y1="144" x2="919.2" y2="144" stroke-width="2.08" class="staff-line"></line>
<line x1="584.8" y1="160" x2="919.2" y2="160" stroke-width="2.08" class="staff-line"></line>
<line x1="584.8" y1="176" x2="919.2" y2="176" stroke-width="2.08" class="staff-line"></line>
<line x1="584.8" y1="192" x2="919.2" y2="192" stroke-width="2.08" class="staff-line"></line>
<text x="662.96" y="152" font-size="64" class="notehead" data-source-id="note5"></text>
<line x1="662.96" y1="154.688" x2="662.96" y2="208" stroke-width="1.92" class="stem"></line>
<text x="818.96" y="152" font-size="64" class="notehead" data-source-id="note6"></text>
<line x1="818.96" y1="154.688" x2="818.96" y2="208" stroke-width="1.92" class="stem"></line>
<line x1="906.4" y1="128" x2="906.4" y2="192" stroke-width="2.56" class="barline barline-final-thin"></line>
<rect x="911.2" y="128" width="8" height="64" fill="currentColor" class="barline barline-final-thick"></rect>
<path d="M 305.6 127.2 C 331.04 114.6933, 364.96 114.6933, 390.4 127.2 C 364.96 116.8267, 331.04 116.8267, 305.6 127.2 Z" fill="currentColor" stroke-width="1.6" stroke-linejoin="round" class="tie"></path>
<path d="M 529.6 143.2 C 568.36 128.4741, 620.04 128.4741, 658.8 143.2 C 620.04 130.6075, 568.36 130.6075, 529.6 143.2 Z" fill="currentColor" stroke-width="1.6" stroke-linejoin="round" class="tie"></path>
<path d="M 686 143.2 C 724.64 128.4933, 776.16 128.4933, 814.8 143.2 C 776.16 130.6267, 724.64 130.6267, 686 143.2 Z" fill="currentColor" stroke-width="1.6" stroke-linejoin="round" class="tie"></path>
</svg>
