<svg width="675.3125" height="606.101" viewBox="0 56.25 675.3125 606.101" class="mnx-notation-svg"><g class="enclosure enc-cell"><rect x="584.2816162109375" y="82.49989128112793" width="25.00021743774414" height="25.00021743774414" rx="3" stroke-width="1.2" data-projection="notation" data-system-row="0"></rect></g><style>:where(svg&gt;text){font-family:Bravura;fill:currentColor}:where(svg&gt;line,svg&gt;path){stroke:currentColor}</style><line x1="18.1818" y1="80" x2="657.1307" y2="80" stroke-width="1.3" class="staff-line"></line><line x1="18.1818" y1="90" x2="657.1307" y2="90" stroke-width="1.3" class="staff-line"></line><line x1="18.1818" y1="100" x2="657.1307" y2="100" stroke-width="1.3" class="staff-line"></line><line x1="18.1818" y1="110" x2="657.1307" y2="110" stroke-width="1.3" class="staff-line"></line><line x1="18.1818" y1="120" x2="657.1307" y2="120" stroke-width="1.3" class="staff-line"></line><text x="20.6818" y="110" font-size="40" class="clef"></text><text x="53.5909" y="90" font-size="40" text-anchor="middle" class="time-sig-num"></text><text x="71.5909" y="90" font-size="40" text-anchor="middle" class="time-sig-num"></text><text x="62.5909" y="110" font-size="40" text-anchor="middle" class="time-sig-den"></text><text x="588.7816" y="95" font-size="40" style="fill:oklch(0.7 0.15 190)" class="notehead selected" data-source-id="n-1-1-v1-0-0"></text><text x="606.6216" y="95" font-size="40" style="fill:oklch(0.7 0.15 190)" class="dot"></text><text x="610.6216" y="95" font-size="40" style="fill:oklch(0.7 0.15 190)" class="dot"></text><text x="614.6216" y="95" font-size="40" style="fill:oklch(0.7 0.15 190)" class="dot"></text><line x1="657.1307" y1="80" x2="657.1307" y2="120" stroke-width="1.6" class="barline"></line><text x="20.1818" y="71" font-size="13" style="font-family:var(--font-family-sans)" class="measure-number">1</text><rect x="21.1818" y="132" width="11" height="11" fill="#b91c1c" rx="5.5" ry="5.5" class="diagnostic-marker diagnostic-validation"><title>validation — underfills the 16/2 bar: notes sum to 3.75 of 16 beats</title></rect><text x="26.6818" y="137.5" font-size="9" text-anchor="middle" dominant-baseline="central" font-weight="bold" style="font-family:var(--font-family-sans);fill:#fff" class="diagnostic-marker diagnostic-validation">!<title>validation — underfills the 16/2 bar: notes sum to 3.75 of 16 beats</title></text><line x1="18.1818" y1="176.75" x2="657.1307" y2="176.75" stroke-width="1.3" class="staff-line"></line><line x1="18.1818" y1="186.75" x2="657.1307" y2="186.75" stroke-width="1.3" class="staff-line"></line><line x1="18.1818" y1="196.75" x2="657.1307" y2="196.75" stroke-width="1.3" class="staff-line"></line><line x1="18.1818" y1="206.75" x2="657.1307" y2="206.75" stroke-width="1.3" class="staff-line"></line><line x1="18.1818" y1="216.75" x2="657.1307" y2="216.75" stroke-width="1.3" class="staff-line"></line><text x="20.6818" y="206.75" font-size="40" class="clef"></text><text x="81.2897" y="191.75" font-size="40" class="notehead" data-source-id="n-1-2-v1-0-0"></text><text x="99.1297" y="191.75" font-size="40" class="dot"></text><text x="103.1297" y="191.75" font-size="40" class="dot"></text><text x="107.1297" y="191.75" font-size="40" class="dot"></text><text x="176.0217" y="191.75" font-size="40" class="notehead" data-source-id="n-1-2-v1-1-0"></text><text x="193.8617" y="191.75" font-size="40" class="dot"></text><text x="197.8617" y="191.75" font-size="40" class="dot"></text><text x="201.8617" y="191.75" font-size="40" class="dot"></text><text x="270.7538" y="191.75" font-size="40" class="notehead" data-source-id="n-1-2-v1-2-0"></text><text x="340.1224" y="191.75" font-size="40" class="notehead" data-source-id="n-1-2-v1-3-0"></text><line x1="340.1224" y1="193.43" x2="340.1224" y2="226.75" stroke-width="1.2" class="stem"></line><text x="393.9256" y="191.75" font-size="40" class="notehead" data-source-id="n-1-2-v1-4-0"></text><line x1="393.9256" y1="193.43" x2="393.9256" y2="226.75" stroke-width="1.2" class="stem"></line><text x="434.7036" y="191.75" font-size="40" class="notehead" data-source-id="n-1-2-v1-5-0"></text><text x="462.4562" y="191.75" font-size="40" class="notehead" data-source-id="n-1-2-v1-6-0"></text><text x="486.6564" y="191.75" font-size="40" class="notehead" data-source-id="n-1-2-v1-7-0"></text><text x="510.8566" y="191.75" font-size="40" class="notehead" data-source-id="n-1-2-v1-8-0"></text><text x="535.0569" y="191.75" font-size="40" class="notehead" data-source-id="n-1-2-v1-9-0"></text><line x1="535.0569" y1="193.43" x2="535.0569" y2="226.75" stroke-width="1.2" class="stem"></line><text x="535.0569" y="226.75" font-size="40" class="flag"></text><text x="559.2571" y="191.75" font-size="40" class="notehead" data-source-id="n-1-2-v1-10-0"></text><line x1="559.2571" y1="193.43" x2="559.2571" y2="226.75" stroke-width="1.2" class="stem"></line><text x="559.2571" y="226.75" font-size="40" class="flag"></text><text x="583.4574" y="191.75" font-size="40" class="notehead" data-source-id="n-1-2-v1-11-0"></text><line x1="583.4574" y1="193.43" x2="583.4574" y2="226.75" stroke-width="1.2" class="stem"></line><text x="583.4574" y="226.75" font-size="40" class="flag"></text><text x="607.6576" y="191.75" font-size="40" class="notehead" data-source-id="n-1-2-v1-12-0"></text><line x1="607.6576" y1="193.43" x2="607.6576" y2="226.75" stroke-width="1.2" class="stem"></line><text x="607.6576" y="226.75" font-size="40" class="flag"></text><text x="631.8578" y="191.75" font-size="40" class="notehead" data-source-id="n-1-2-v1-13-0"></text><line x1="631.8578" y1="193.43" x2="631.8578" y2="226.75" stroke-width="1.2" class="stem"></line><text x="631.8578" y="226.75" font-size="40" class="flag"></text><line x1="657.1307" y1="176.75" x2="657.1307" y2="216.75" stroke-width="1.6" class="barline"></line><text x="20.1818" y="167.75" font-size="13" style="font-family:var(--font-family-sans)" class="measure-number">2</text><rect x="21.1818" y="228.75" width="11" height="11" fill="#b91c1c" rx="5.5" ry="5.5" class="diagnostic-marker diagnostic-validation"><title>validation — underfills the 16/2 bar: notes sum to 11.547 of 16 beats</title></rect><text x="26.6818" y="234.25" font-size="9" text-anchor="middle" dominant-baseline="central" font-weight="bold" style="font-family:var(--font-family-sans);fill:#fff" class="diagnostic-marker diagnostic-validation">!<title>validation — underfills the 16/2 bar: notes sum to 11.547 of 16 beats</title></text><line x1="18.1818" y1="283.7003" x2="657.1307" y2="283.7003" stroke-width="1.3" class="staff-line"></line><line x1="18.1818" y1="293.7003" x2="657.1307" y2="293.7003" stroke-width="1.3" class="staff-line"></line><line x1="18.1818" y1="303.7003" x2="657.1307" y2="303.7003" stroke-width="1.3" class="staff-line"></line><line x1="18.1818" y1="313.7003" x2="657.1307" y2="313.7003" stroke-width="1.3" class="staff-line"></line><line x1="18.1818" y1="323.7003" x2="657.1307" y2="323.7003" stroke-width="1.3" class="staff-line"></line><text x="20.6818" y="313.7003" font-size="40" class="clef"></text><text x="53.5909" y="293.7003" font-size="40" text-anchor="middle" class="time-sig-num"></text><text x="71.5909" y="293.7003" font-size="40" text-anchor="middle" class="time-sig-num"></text><text x="62.5909" y="313.7003" font-size="40" text-anchor="middle" class="time-sig-den"></text><text x="588.7816" y="298.7003" font-size="40" class="notehead" data-source-id="n-1-3-v1-0-0"></text><text x="606.6216" y="298.7003" font-size="40" class="dot"></text><text x="610.6216" y="298.7003" font-size="40" class="dot"></text><text x="614.6216" y="298.7003" font-size="40" class="dot"></text><line x1="657.1307" y1="283.7003" x2="657.1307" y2="323.7003" stroke-width="1.6" class="barline"></line><text x="20.1818" y="274.7003" font-size="13" style="font-family:var(--font-family-sans)" class="measure-number">3</text><rect x="21.1818" y="335.7003" width="11" height="11" fill="#b91c1c" rx="5.5" ry="5.5" class="diagnostic-marker diagnostic-validation"><title>validation — underfills the 24/2 bar: notes sum to 3.75 of 24 beats</title></rect><text x="26.6818" y="341.2003" font-size="9" text-anchor="middle" dominant-baseline="central" font-weight="bold" style="font-family:var(--font-family-sans);fill:#fff" class="diagnostic-marker diagnostic-validation">!<title>validation — underfills the 24/2 bar: notes sum to 3.75 of 24 beats</title></text><line x1="18.1818" y1="380.4503" x2="657.1307" y2="380.4503" stroke-width="1.3" class="staff-line"></line><line x1="18.1818" y1="390.4503" x2="657.1307" y2="390.4503" stroke-width="1.3" class="staff-line"></line><line x1="18.1818" y1="400.4503" x2="657.1307" y2="400.4503" stroke-width="1.3" class="staff-line"></line><line x1="18.1818" y1="410.4503" x2="657.1307" y2="410.4503" stroke-width="1.3" class="staff-line"></line><line x1="18.1818" y1="420.4503" x2="657.1307" y2="420.4503" stroke-width="1.3" class="staff-line"></line><text x="20.6818" y="410.4503" font-size="40" class="clef"></text><text x="75.3003" y="395.4503" font-size="40" class="notehead" data-source-id="n-1-4-v1-0-0"></text><text x="93.1403" y="395.4503" font-size="40" class="dot"></text><text x="97.1403" y="395.4503" font-size="40" class="dot"></text><text x="101.1403" y="395.4503" font-size="40" class="dot"></text><text x="158.0537" y="395.4503" font-size="40" class="notehead" data-source-id="n-1-4-v1-1-0"></text><text x="175.8937" y="395.4503" font-size="40" class="dot"></text><text x="179.8937" y="395.4503" font-size="40" class="dot"></text><text x="183.8937" y="395.4503" font-size="40" class="dot"></text><text x="240.807" y="395.4503" font-size="40" class="notehead" data-source-id="n-1-4-v1-2-0"></text><text x="258.647" y="395.4503" font-size="40" class="dot"></text><text x="311.9658" y="395.4503" font-size="40" class="notehead" data-source-id="n-1-4-v1-3-0"></text><line x1="311.9658" y1="397.1303" x2="311.9658" y2="430.4503" stroke-width="1.2" class="stem"></line><text x="327.2658" y="395.4503" font-size="40" class="dot"></text><text x="370.0004" y="395.4503" font-size="40" class="notehead" data-source-id="n-1-4-v1-4-0"></text><line x1="370.0004" y1="397.1303" x2="370.0004" y2="430.4503" stroke-width="1.2" class="stem"></line><text x="385.3004" y="395.4503" font-size="40" class="dot"></text><text x="417.4509" y="395.4503" font-size="40" class="notehead" data-source-id="n-1-4-v1-5-0"></text><text x="432.7509" y="395.4503" font-size="40" class="dot"></text><text x="454.3172" y="395.4503" font-size="40" class="notehead" data-source-id="n-1-4-v1-6-0"></text><text x="469.6172" y="395.4503" font-size="40" class="dot"></text><text x="482.1057" y="395.4503" font-size="40" class="notehead" data-source-id="n-1-4-v1-7-0"></text><text x="497.4057" y="395.4503" font-size="40" class="dot"></text><text x="509.8942" y="395.4503" font-size="40" class="notehead" data-source-id="n-1-4-v1-8-0"></text><text x="525.1942" y="395.4503" font-size="40" class="dot"></text><text x="537.6826" y="395.4503" font-size="40" class="notehead" data-source-id="n-1-4-v1-9-0"></text><line x1="537.6826" y1="397.1303" x2="537.6826" y2="430.4503" stroke-width="1.2" class="stem"></line><text x="537.6826" y="430.4503" font-size="40" class="flag"></text><text x="552.9826" y="395.4503" font-size="40" class="dot"></text><text x="565.4711" y="395.4503" font-size="40" class="notehead" data-source-id="n-1-4-v1-10-0"></text><line x1="565.4711" y1="397.1303" x2="565.4711" y2="430.4503" stroke-width="1.2" class="stem"></line><text x="565.4711" y="430.4503" font-size="40" class="flag"></text><text x="587.8959" y="395.4503" font-size="40" class="notehead" data-source-id="n-1-4-v1-11-0"></text><line x1="587.8959" y1="397.1303" x2="587.8959" y2="430.4503" stroke-width="1.2" class="stem"></line><text x="587.8959" y="430.4503" font-size="40" class="flag"></text><text x="610.3207" y="395.4503" font-size="40" class="notehead" data-source-id="n-1-4-v1-12-0"></text><line x1="610.3207" y1="397.1303" x2="610.3207" y2="430.4503" stroke-width="1.2" class="stem"></line><text x="610.3207" y="430.4503" font-size="40" class="flag"></text><text x="632.7455" y="395.4503" font-size="40" class="notehead" data-source-id="n-1-4-v1-13-0"></text><line x1="632.7455" y1="397.1303" x2="632.7455" y2="430.4503" stroke-width="1.2" class="stem"></line><text x="632.7455" y="430.4503" font-size="40" class="flag"></text><line x1="657.1307" y1="380.4503" x2="657.1307" y2="420.4503" stroke-width="1.6" class="barline"></line><text x="20.1818" y="371.4503" font-size="13" style="font-family:var(--font-family-sans)" class="measure-number">4</text><rect x="21.1818" y="432.4503" width="11" height="11" fill="#b91c1c" rx="5.5" ry="5.5" class="diagnostic-marker diagnostic-validation"><title>validation — underfills the 24/2 bar: notes sum to 13.539 of 24 beats</title></rect><text x="26.6818" y="437.9503" font-size="9" text-anchor="middle" dominant-baseline="central" font-weight="bold" style="font-family:var(--font-family-sans);fill:#fff" class="diagnostic-marker diagnostic-validation">!<title>validation — underfills the 24/2 bar: notes sum to 13.539 of 24 beats</title></text><line x1="18.1818" y1="487.4007" x2="657.1307" y2="487.4007" stroke-width="1.3" class="staff-line"></line><line x1="18.1818" y1="497.4007" x2="657.1307" y2="497.4007" stroke-width="1.3" class="staff-line"></line><line x1="18.1818" y1="507.4007" x2="657.1307" y2="507.4007" stroke-width="1.3" class="staff-line"></line><line x1="18.1818" y1="517.4007" x2="657.1307" y2="517.4007" stroke-width="1.3" class="staff-line"></line><line x1="18.1818" y1="527.4007" x2="657.1307" y2="527.4007" stroke-width="1.3" class="staff-line"></line><text x="20.6818" y="517.4007" font-size="40" class="clef"></text><text x="53.5909" y="497.4007" font-size="40" text-anchor="middle" class="time-sig-num"></text><text x="71.5909" y="497.4007" font-size="40" text-anchor="middle" class="time-sig-num"></text><text x="62.5909" y="517.4007" font-size="40" text-anchor="middle" class="time-sig-den"></text><text x="588.7816" y="502.4007" font-size="40" class="notehead" data-source-id="n-1-5-v1-0-0"></text><text x="606.6216" y="502.4007" font-size="40" class="dot"></text><text x="610.6216" y="502.4007" font-size="40" class="dot"></text><text x="614.6216" y="502.4007" font-size="40" class="dot"></text><line x1="657.1307" y1="487.4007" x2="657.1307" y2="527.4007" stroke-width="1.6" class="barline"></line><text x="20.1818" y="478.4007" font-size="13" style="font-family:var(--font-family-sans)" class="measure-number">5</text><rect x="21.1818" y="539.4007" width="11" height="11" fill="#b91c1c" rx="5.5" ry="5.5" class="diagnostic-marker diagnostic-validation"><title>validation — underfills the 28/2 bar: notes sum to 3.75 of 28 beats</title></rect><text x="26.6818" y="544.9007" font-size="9" text-anchor="middle" dominant-baseline="central" font-weight="bold" style="font-family:var(--font-family-sans);fill:#fff" class="diagnostic-marker diagnostic-validation">!<title>validation — underfills the 28/2 bar: notes sum to 3.75 of 28 beats</title></text><line x1="18.1818" y1="584.1507" x2="657.1307" y2="584.1507" stroke-width="1.3" class="staff-line"></line><line x1="18.1818" y1="594.1507" x2="657.1307" y2="594.1507" stroke-width="1.3" class="staff-line"></line><line x1="18.1818" y1="604.1507" x2="657.1307" y2="604.1507" stroke-width="1.3" class="staff-line"></line><line x1="18.1818" y1="614.1507" x2="657.1307" y2="614.1507" stroke-width="1.3" class="staff-line"></line><line x1="18.1818" y1="624.1507" x2="657.1307" y2="624.1507" stroke-width="1.3" class="staff-line"></line><text x="20.6818" y="614.1507" font-size="40" class="clef"></text><text x="71.0963" y="599.1507" font-size="40" class="notehead" data-source-id="n-1-6-v1-0-0"></text><text x="88.9363" y="599.1507" font-size="40" class="dot"></text><text x="92.9363" y="599.1507" font-size="40" class="dot"></text><text x="96.9363" y="599.1507" font-size="40" class="dot"></text><text x="145.4417" y="599.1507" font-size="40" class="notehead" data-source-id="n-1-6-v1-1-0"></text><text x="163.2817" y="599.1507" font-size="40" class="dot"></text><text x="167.2817" y="599.1507" font-size="40" class="dot"></text><text x="171.2817" y="599.1507" font-size="40" class="dot"></text><text x="219.7872" y="599.1507" font-size="40" class="notehead" data-source-id="n-1-6-v1-2-0"></text><text x="237.6272" y="599.1507" font-size="40" class="dot"></text><text x="241.6272" y="599.1507" font-size="40" class="dot"></text><text x="290.426" y="599.1507" font-size="40" class="notehead" data-source-id="n-1-6-v1-3-0"></text><line x1="290.426" y1="600.8307" x2="290.426" y2="634.1507" stroke-width="1.2" class="stem"></line><text x="305.726" y="599.1507" font-size="40" class="dot"></text><text x="309.726" y="599.1507" font-size="40" class="dot"></text><text x="349.6542" y="599.1507" font-size="40" class="notehead" data-source-id="n-1-6-v1-4-0"></text><line x1="349.6542" y1="600.8307" x2="349.6542" y2="634.1507" stroke-width="1.2" class="stem"></line><text x="364.9542" y="599.1507" font-size="40" class="dot"></text><text x="368.9542" y="599.1507" font-size="40" class="dot"></text><text x="400.0117" y="599.1507" font-size="40" class="notehead" data-source-id="n-1-6-v1-5-0"></text><text x="415.3117" y="599.1507" font-size="40" class="dot"></text><text x="419.3117" y="599.1507" font-size="40" class="dot"></text><text x="441.4987" y="599.1507" font-size="40" class="notehead" data-source-id="n-1-6-v1-6-0"></text><text x="456.7987" y="599.1507" font-size="40" class="dot"></text><text x="460.7987" y="599.1507" font-size="40" class="dot"></text><text x="474.115" y="599.1507" font-size="40" class="notehead" data-source-id="n-1-6-v1-7-0"></text><text x="489.415" y="599.1507" font-size="40" class="dot"></text><text x="493.415" y="599.1507" font-size="40" class="dot"></text><text x="506.0209" y="599.1507" font-size="40" class="notehead" data-source-id="n-1-6-v1-8-0"></text><text x="521.3209" y="599.1507" font-size="40" class="dot"></text><text x="525.3209" y="599.1507" font-size="40" class="dot"></text><text x="537.9268" y="599.1507" font-size="40" class="notehead" data-source-id="n-1-6-v1-9-0"></text><line x1="537.9268" y1="600.8307" x2="537.9268" y2="634.1507" stroke-width="1.2" class="stem"></line><text x="537.9268" y="634.1507" font-size="40" class="flag"></text><text x="553.2268" y="599.1507" font-size="40" class="dot"></text><text x="557.2268" y="599.1507" font-size="40" class="dot"></text><text x="569.8327" y="599.1507" font-size="40" class="notehead" data-source-id="n-1-6-v1-10-0"></text><line x1="569.8327" y1="600.8307" x2="569.8327" y2="634.1507" stroke-width="1.2" class="stem"></line><text x="569.8327" y="634.1507" font-size="40" class="flag"></text><text x="591.0113" y="599.1507" font-size="40" class="notehead" data-source-id="n-1-6-v1-11-0"></text><line x1="591.0113" y1="600.8307" x2="591.0113" y2="634.1507" stroke-width="1.2" class="stem"></line><text x="591.0113" y="634.1507" font-size="40" class="flag"></text><text x="612.19" y="599.1507" font-size="40" class="notehead" data-source-id="n-1-6-v1-12-0"></text><line x1="612.19" y1="600.8307" x2="612.19" y2="634.1507" stroke-width="1.2" class="stem"></line><text x="612.19" y="634.1507" font-size="40" class="flag"></text><text x="633.3686" y="599.1507" font-size="40" class="notehead" data-source-id="n-1-6-v1-13-0"></text><line x1="633.3686" y1="600.8307" x2="633.3686" y2="634.1507" stroke-width="1.2" class="stem"></line><text x="633.3686" y="634.1507" font-size="40" class="flag"></text><line x1="649.1307" y1="584.1507" x2="649.1307" y2="624.1507" stroke-width="1.6" class="barline barline-final-thin"></line><rect x="652.1307" y="584.1507" width="5" height="40" fill="currentColor" class="barline barline-final-thick"></rect><text x="20.1818" y="575.1507" font-size="13" style="font-family:var(--font-family-sans)" class="measure-number">6</text><rect x="21.1818" y="636.1507" width="11" height="11" fill="#b91c1c" rx="5.5" ry="5.5" class="diagnostic-marker diagnostic-validation"><title>validation — underfills the 28/2 bar: notes sum to 14.535 of 28 beats</title></rect><text x="26.6818" y="641.6507" font-size="9" text-anchor="middle" dominant-baseline="central" font-weight="bold" style="font-family:var(--font-family-sans);fill:#fff" class="diagnostic-marker diagnostic-validation">!<title>validation — underfills the 28/2 bar: notes sum to 14.535 of 28 beats</title></text><line x1="434.7036" y1="193.43" x2="434.7036" y2="216.75" stroke-width="1.2" class="stem"></line><line x1="462.4562" y1="193.43" x2="462.4562" y2="216.75" stroke-width="1.2" class="stem"></line><line x1="486.6564" y1="193.43" x2="486.6564" y2="216.75" stroke-width="1.2" class="stem"></line><line x1="510.8566" y1="193.43" x2="510.8566" y2="216.75" stroke-width="1.2" class="stem"></line><line x1="434.1036" y1="216.75" x2="511.4566" y2="216.75" stroke-width="5" class="beam"></line><line x1="486.0564" y1="209.25" x2="511.4566" y2="209.25" stroke-width="5" class="beam"></line><line x1="486.0564" y1="201.75" x2="511.4566" y2="201.75" stroke-width="5" class="beam"></line><line x1="451.8562" y1="209.25" x2="463.0562" y2="209.25" stroke-width="5" class="beam"></line><line x1="500.2566" y1="194.25" x2="511.4566" y2="194.25" stroke-width="5" class="beam"></line><line x1="417.4509" y1="397.1303" x2="417.4509" y2="420.4503" stroke-width="1.2" class="stem"></line><line x1="454.3172" y1="397.1303" x2="454.3172" y2="420.4503" stroke-width="1.2" class="stem"></line><line x1="482.1057" y1="397.1303" x2="482.1057" y2="420.4503" stroke-width="1.2" class="stem"></line><line x1="509.8942" y1="397.1303" x2="509.8942" y2="420.4503" stroke-width="1.2" class="stem"></line><line x1="416.8509" y1="420.4503" x2="510.4942" y2="420.4503" stroke-width="5" class="beam"></line><line x1="453.7172" y1="412.9503" x2="510.4942" y2="412.9503" stroke-width="5" class="beam"></line><line x1="481.5057" y1="405.4503" x2="510.4942" y2="405.4503" stroke-width="5" class="beam"></line><line x1="499.2942" y1="397.9503" x2="510.4942" y2="397.9503" stroke-width="5" class="beam"></line><line x1="400.0117" y1="600.8307" x2="400.0117" y2="624.1507" stroke-width="1.2" class="stem"></line><line x1="441.4987" y1="600.8307" x2="441.4987" y2="624.1507" stroke-width="1.2" class="stem"></line><line x1="474.115" y1="600.8307" x2="474.115" y2="624.1507" stroke-width="1.2" class="stem"></line><line x1="506.0209" y1="600.8307" x2="506.0209" y2="624.1507" stroke-width="1.2" class="stem"></line><line x1="399.4117" y1="624.1507" x2="506.6209" y2="624.1507" stroke-width="5" class="beam"></line><line x1="440.8987" y1="616.6507" x2="506.6209" y2="616.6507" stroke-width="5" class="beam"></line><line x1="473.515" y1="609.1507" x2="506.6209" y2="609.1507" stroke-width="5" class="beam"></line><line x1="495.4209" y1="601.6507" x2="506.6209" y2="601.6507" stroke-width="5" class="beam"></line></svg>