<svg width="1280" height="1814.272" viewBox="0 0 1280 1814.272" xmlns="http://www.w3.org/2000/svg">
<style>:where(svg>text){font-family:Bravura;fill:currentColor}:where(svg>line,svg>path){stroke:currentColor}</style>
<text x="401.2" y="54.4" font-size="38.4" text-anchor="middle" style="font-family:var(--font-family-sans)" class="score-title">Full score</text>
<line x1="302.4" y1="110.272" x2="463.2" y2="110.272" stroke-width="2.08" class="staff-line"></line>
<line x1="302.4" y1="126.272" x2="463.2" y2="126.272" stroke-width="2.08" class="staff-line"></line>
<line x1="302.4" y1="142.272" x2="463.2" y2="142.272" stroke-width="2.08" class="staff-line"></line>
<line x1="302.4" y1="158.272" x2="463.2" y2="158.272" stroke-width="2.08" class="staff-line"></line>
<line x1="302.4" y1="174.272" x2="463.2" y2="174.272" stroke-width="2.08" class="staff-line"></line>
<line x1="302.4" y1="270.656" x2="463.2" y2="270.656" stroke-width="2.08" class="staff-line"></line>
<line x1="302.4" y1="286.656" x2="463.2" y2="286.656" stroke-width="2.08" class="staff-line"></line>
<line x1="302.4" y1="302.656" x2="463.2" y2="302.656" stroke-width="2.08" class="staff-line"></line>
<line x1="302.4" y1="318.656" x2="463.2" y2="318.656" stroke-width="2.08" class="staff-line"></line>
<line x1="302.4" y1="334.656" x2="463.2" y2="334.656" stroke-width="2.08" class="staff-line"></line>
<line x1="302.4" y1="431.04" x2="463.2" y2="431.04" stroke-width="2.08" class="staff-line"></line>
<line x1="302.4" y1="447.04" x2="463.2" y2="447.04" stroke-width="2.08" class="staff-line"></line>
<line x1="302.4" y1="463.04" x2="463.2" y2="463.04" stroke-width="2.08" class="staff-line"></line>
<line x1="302.4" y1="479.04" x2="463.2" y2="479.04" stroke-width="2.08" class="staff-line"></line>
<line x1="302.4" y1="495.04" x2="463.2" y2="495.04" stroke-width="2.08" class="staff-line"></line>
<line x1="302.4" y1="591.424" x2="463.2" y2="591.424" stroke-width="2.08" class="staff-line"></line>
<line x1="302.4" y1="607.424" x2="463.2" y2="607.424" stroke-width="2.08" class="staff-line"></line>
<line x1="302.4" y1="623.424" x2="463.2" y2="623.424" stroke-width="2.08" class="staff-line"></line>
<line x1="302.4" y1="639.424" x2="463.2" y2="639.424" stroke-width="2.08" class="staff-line"></line>
<line x1="302.4" y1="655.424" x2="463.2" y2="655.424" stroke-width="2.08" class="staff-line"></line>
<line x1="302.4" y1="730.304" x2="463.2" y2="730.304" stroke-width="2.08" class="staff-line"></line>
<line x1="302.4" y1="746.304" x2="463.2" y2="746.304" stroke-width="2.08" class="staff-line"></line>
<line x1="302.4" y1="762.304" x2="463.2" y2="762.304" stroke-width="2.08" class="staff-line"></line>
<line x1="302.4" y1="778.304" x2="463.2" y2="778.304" stroke-width="2.08" class="staff-line"></line>
<line x1="302.4" y1="794.304" x2="463.2" y2="794.304" stroke-width="2.08" class="staff-line"></line>
<line x1="302.4" y1="110.272" x2="302.4" y2="794.304" stroke-width="2.56" class="barline barline-start"></line>
<text x="251.9456" y="334.656" font-size="225.056" class="brace"></text>
<rect x="280" y="108.672" width="8" height="387.968" fill="currentColor" class="bracket"></rect>
<text x="280" y="108.672" font-size="64" class="bracket"></text>
<text x="280" y="496.64" font-size="64" class="bracket"></text>
<text x="279.3136" y="794.304" font-size="203.488" class="brace"></text>
<text x="240" y="312.256" font-size="25.6" text-anchor="end" style="font-family:var(--font-family-sans)" class="staff-label">3</text>
<text x="217.6" y="472.64" font-size="25.6" text-anchor="end" style="font-family:var(--font-family-sans)" class="staff-label">Oboes</text>
<text x="240" y="134.272" font-size="22.4" text-anchor="end" style="font-family:var(--font-family-sans)" class="source-label">1</text>
<text x="240" y="166.272" font-size="22.4" text-anchor="end" style="font-family:var(--font-family-sans)" class="source-label">2</text>
<text x="240" y="455.04" font-size="22.4" text-anchor="end" style="font-family:var(--font-family-sans)" class="source-label">1</text>
<text x="240" y="487.04" font-size="22.4" text-anchor="end" style="font-family:var(--font-family-sans)" class="source-label">2</text>
<text x="214.4" y="232.064" font-size="25.6" text-anchor="end" style="font-family:var(--font-family-sans)" class="group-label">Flutes</text>
<text x="240" y="702.464" font-size="25.6" text-anchor="end" style="font-family:var(--font-family-sans)" class="group-label">Piano</text>
<text x="306.4" y="158.272" font-size="64" class="clef"></text>
<text x="306.4" y="318.656" font-size="64" class="clef"></text>
<text x="306.4" y="479.04" font-size="64" class="clef"></text>
<text x="306.4" y="639.424" font-size="64" class="clef"></text>
<text x="306.4" y="746.304" font-size="64" class="clef"></text>
<line x1="463.2" y1="110.272" x2="463.2" y2="334.656" stroke-width="2.56" class="barline"></line>
<line x1="463.2" y1="110.272" x2="463.2" y2="495.04" stroke-width="2.56" class="barline"></line>
<line x1="463.2" y1="591.424" x2="463.2" y2="794.304" stroke-width="2.56" class="barline"></line>
<line x1="463.2" y1="110.272" x2="581.6" y2="110.272" stroke-width="2.08" class="staff-line"></line>
<line x1="463.2" y1="126.272" x2="581.6" y2="126.272" stroke-width="2.08" class="staff-line"></line>
<line x1="463.2" y1="142.272" x2="581.6" y2="142.272" stroke-width="2.08" class="staff-line"></line>
<line x1="463.2" y1="158.272" x2="581.6" y2="158.272" stroke-width="2.08" class="staff-line"></line>
<line x1="463.2" y1="174.272" x2="581.6" y2="174.272" stroke-width="2.08" class="staff-line"></line>
<line x1="463.2" y1="270.656" x2="581.6" y2="270.656" stroke-width="2.08" class="staff-line"></line>
<line x1="463.2" y1="286.656" x2="581.6" y2="286.656" stroke-width="2.08" class="staff-line"></line>
<line x1="463.2" y1="302.656" x2="581.6" y2="302.656" stroke-width="2.08" class="staff-line"></line>
<line x1="463.2" y1="318.656" x2="581.6" y2="318.656" stroke-width="2.08" class="staff-line"></line>
<line x1="463.2" y1="334.656" x2="581.6" y2="334.656" stroke-width="2.08" class="staff-line"></line>
<line x1="463.2" y1="431.04" x2="581.6" y2="431.04" stroke-width="2.08" class="staff-line"></line>
<line x1="463.2" y1="447.04" x2="581.6" y2="447.04" stroke-width="2.08" class="staff-line"></line>
<line x1="463.2" y1="463.04" x2="581.6" y2="463.04" stroke-width="2.08" class="staff-line"></line>
<line x1="463.2" y1="479.04" x2="581.6" y2="479.04" stroke-width="2.08" class="staff-line"></line>
<line x1="463.2" y1="495.04" x2="581.6" y2="495.04" stroke-width="2.08" class="staff-line"></line>
<line x1="463.2" y1="591.424" x2="581.6" y2="591.424" stroke-width="2.08" class="staff-line"></line>
<line x1="463.2" y1="607.424" x2="581.6" y2="607.424" stroke-width="2.08" class="staff-line"></line>
<line x1="463.2" y1="623.424" x2="581.6" y2="623.424" stroke-width="2.08" class="staff-line"></line>
<line x1="463.2" y1="639.424" x2="581.6" y2="639.424" stroke-width="2.08" class="staff-line"></line>
<line x1="463.2" y1="655.424" x2="581.6" y2="655.424" stroke-width="2.08" class="staff-line"></line>
<line x1="463.2" y1="730.304" x2="581.6" y2="730.304" stroke-width="2.08" class="staff-line"></line>
<line x1="463.2" y1="746.304" x2="581.6" y2="746.304" stroke-width="2.08" class="staff-line"></line>
<line x1="463.2" y1="762.304" x2="581.6" y2="762.304" stroke-width="2.08" class="staff-line"></line>
<line x1="463.2" y1="778.304" x2="581.6" y2="778.304" stroke-width="2.08" class="staff-line"></line>
<line x1="463.2" y1="794.304" x2="581.6" y2="794.304" stroke-width="2.08" class="staff-line"></line>
<line x1="581.6" y1="110.272" x2="581.6" y2="334.656" stroke-width="2.56" class="barline"></line>
<line x1="581.6" y1="110.272" x2="581.6" y2="495.04" stroke-width="2.56" class="barline"></line>
<line x1="581.6" y1="591.424" x2="581.6" y2="794.304" stroke-width="2.56" class="barline"></line>
<line x1="581.6" y1="110.272" x2="700" y2="110.272" stroke-width="2.08" class="staff-line"></line>
<line x1="581.6" y1="126.272" x2="700" y2="126.272" stroke-width="2.08" class="staff-line"></line>
<line x1="581.6" y1="142.272" x2="700" y2="142.272" stroke-width="2.08" class="staff-line"></line>
<line x1="581.6" y1="158.272" x2="700" y2="158.272" stroke-width="2.08" class="staff-line"></line>
<line x1="581.6" y1="174.272" x2="700" y2="174.272" stroke-width="2.08" class="staff-line"></line>
<line x1="581.6" y1="270.656" x2="700" y2="270.656" stroke-width="2.08" class="staff-line"></line>
<line x1="581.6" y1="286.656" x2="700" y2="286.656" stroke-width="2.08" class="staff-line"></line>
<line x1="581.6" y1="302.656" x2="700" y2="302.656" stroke-width="2.08" class="staff-line"></line>
<line x1="581.6" y1="318.656" x2="700" y2="318.656" stroke-width="2.08" class="staff-line"></line>
<line x1="581.6" y1="334.656" x2="700" y2="334.656" stroke-width="2.08" class="staff-line"></line>
<line x1="581.6" y1="431.04" x2="700" y2="431.04" stroke-width="2.08" class="staff-line"></line>
<line x1="581.6" y1="447.04" x2="700" y2="447.04" stroke-width="2.08" class="staff-line"></line>
<line x1="581.6" y1="463.04" x2="700" y2="463.04" stroke-width="2.08" class="staff-line"></line>
<line x1="581.6" y1="479.04" x2="700" y2="479.04" stroke-width="2.08" class="staff-line"></line>
<line x1="581.6" y1="495.04" x2="700" y2="495.04" stroke-width="2.08" class="staff-line"></line>
<line x1="581.6" y1="591.424" x2="700" y2="591.424" stroke-width="2.08" class="staff-line"></line>
<line x1="581.6" y1="607.424" x2="700" y2="607.424" stroke-width="2.08" class="staff-line"></line>
<line x1="581.6" y1="623.424" x2="700" y2="623.424" stroke-width="2.08" class="staff-line"></line>
<line x1="581.6" y1="639.424" x2="700" y2="639.424" stroke-width="2.08" class="staff-line"></line>
<line x1="581.6" y1="655.424" x2="700" y2="655.424" stroke-width="2.08" class="staff-line"></line>
<line x1="581.6" y1="730.304" x2="700" y2="730.304" stroke-width="2.08" class="staff-line"></line>
<line x1="581.6" y1="746.304" x2="700" y2="746.304" stroke-width="2.08" class="staff-line"></line>
<line x1="581.6" y1="762.304" x2="700" y2="762.304" stroke-width="2.08" class="staff-line"></line>
<line x1="581.6" y1="778.304" x2="700" y2="778.304" stroke-width="2.08" class="staff-line"></line>
<line x1="581.6" y1="794.304" x2="700" y2="794.304" stroke-width="2.08" class="staff-line"></line>
<line x1="687.2" y1="110.272" x2="687.2" y2="334.656" stroke-width="2.56" class="barline barline-final-thin"></line>
<rect x="692" y="110.272" width="8" height="224.384" fill="currentColor" class="barline barline-final-thick"></rect>
<line x1="687.2" y1="110.272" x2="687.2" y2="495.04" stroke-width="2.56" class="barline barline-final-thin"></line>
<rect x="692" y="110.272" width="8" height="384.768" fill="currentColor" class="barline barline-final-thick"></rect>
<line x1="687.2" y1="591.424" x2="687.2" y2="794.304" stroke-width="2.56" class="barline barline-final-thin"></line>
<rect x="692" y="591.424" width="8" height="202.88" fill="currentColor" class="barline barline-final-thick"></rect>
<line x1="254.4" y1="841.856" x2="415.2" y2="841.856" stroke-width="2.08" class="staff-line"></line>
<line x1="254.4" y1="857.856" x2="415.2" y2="857.856" stroke-width="2.08" class="staff-line"></line>
<line x1="254.4" y1="873.856" x2="415.2" y2="873.856" stroke-width="2.08" class="staff-line"></line>
<line x1="254.4" y1="889.856" x2="415.2" y2="889.856" stroke-width="2.08" class="staff-line"></line>
<line x1="254.4" y1="905.856" x2="415.2" y2="905.856" stroke-width="2.08" class="staff-line"></line>
<line x1="254.4" y1="1002.24" x2="415.2" y2="1002.24" stroke-width="2.08" class="staff-line"></line>
<line x1="254.4" y1="1018.24" x2="415.2" y2="1018.24" stroke-width="2.08" class="staff-line"></line>
<line x1="254.4" y1="1034.24" x2="415.2" y2="1034.24" stroke-width="2.08" class="staff-line"></line>
<line x1="254.4" y1="1050.24" x2="415.2" y2="1050.24" stroke-width="2.08" class="staff-line"></line>
<line x1="254.4" y1="1066.24" x2="415.2" y2="1066.24" stroke-width="2.08" class="staff-line"></line>
<line x1="254.4" y1="1162.624" x2="415.2" y2="1162.624" stroke-width="2.08" class="staff-line"></line>
<line x1="254.4" y1="1178.624" x2="415.2" y2="1178.624" stroke-width="2.08" class="staff-line"></line>
<line x1="254.4" y1="1194.624" x2="415.2" y2="1194.624" stroke-width="2.08" class="staff-line"></line>
<line x1="254.4" y1="1210.624" x2="415.2" y2="1210.624" stroke-width="2.08" class="staff-line"></line>
<line x1="254.4" y1="1226.624" x2="415.2" y2="1226.624" stroke-width="2.08" class="staff-line"></line>
<line x1="254.4" y1="1323.008" x2="415.2" y2="1323.008" stroke-width="2.08" class="staff-line"></line>
<line x1="254.4" y1="1339.008" x2="415.2" y2="1339.008" stroke-width="2.08" class="staff-line"></line>
<line x1="254.4" y1="1355.008" x2="415.2" y2="1355.008" stroke-width="2.08" class="staff-line"></line>
<line x1="254.4" y1="1371.008" x2="415.2" y2="1371.008" stroke-width="2.08" class="staff-line"></line>
<line x1="254.4" y1="1387.008" x2="415.2" y2="1387.008" stroke-width="2.08" class="staff-line"></line>
<line x1="254.4" y1="1483.392" x2="415.2" y2="1483.392" stroke-width="2.08" class="staff-line"></line>
<line x1="254.4" y1="1499.392" x2="415.2" y2="1499.392" stroke-width="2.08" class="staff-line"></line>
<line x1="254.4" y1="1515.392" x2="415.2" y2="1515.392" stroke-width="2.08" class="staff-line"></line>
<line x1="254.4" y1="1531.392" x2="415.2" y2="1531.392" stroke-width="2.08" class="staff-line"></line>
<line x1="254.4" y1="1547.392" x2="415.2" y2="1547.392" stroke-width="2.08" class="staff-line"></line>
<line x1="254.4" y1="1622.272" x2="415.2" y2="1622.272" stroke-width="2.08" class="staff-line"></line>
<line x1="254.4" y1="1638.272" x2="415.2" y2="1638.272" stroke-width="2.08" class="staff-line"></line>
<line x1="254.4" y1="1654.272" x2="415.2" y2="1654.272" stroke-width="2.08" class="staff-line"></line>
<line x1="254.4" y1="1670.272" x2="415.2" y2="1670.272" stroke-width="2.08" class="staff-line"></line>
<line x1="254.4" y1="1686.272" x2="415.2" y2="1686.272" stroke-width="2.08" class="staff-line"></line>
<line x1="254.4" y1="841.856" x2="254.4" y2="1686.272" stroke-width="2.56" class="barline barline-start"></line>
<text x="190.7536" y="1226.624" font-size="385.9264" class="brace"></text>
<rect x="232" y="840.256" width="8" height="548.352" fill="currentColor" class="bracket"></rect>
<text x="232" y="840.256" font-size="64" class="bracket"></text>
<text x="232" y="1388.608" font-size="64" class="bracket"></text>
<text x="231.3136" y="1686.272" font-size="203.488" class="brace"></text>
<text x="192" y="883.456" font-size="25.6" text-anchor="end" style="font-family:var(--font-family-sans)" class="staff-label">1</text>
<text x="192" y="1043.84" font-size="25.6" text-anchor="end" style="font-family:var(--font-family-sans)" class="staff-label">2</text>
<text x="192" y="1204.224" font-size="25.6" text-anchor="end" style="font-family:var(--font-family-sans)" class="staff-label">3</text>
<text x="169.6" y="1364.608" font-size="25.6" text-anchor="end" style="font-family:var(--font-family-sans)" class="staff-label">Ob.</text>
<text x="192" y="1347.008" font-size="22.4" text-anchor="end" style="font-family:var(--font-family-sans)" class="source-label">1</text>
<text x="192" y="1379.008" font-size="22.4" text-anchor="end" style="font-family:var(--font-family-sans)" class="source-label">2</text>
<text x="166.4" y="1043.84" font-size="25.6" text-anchor="end" style="font-family:var(--font-family-sans)" class="group-label">Fl.</text>
<text x="192" y="1594.432" font-size="25.6" text-anchor="end" style="font-family:var(--font-family-sans)" class="group-label">Piano</text>
<text x="258.4" y="889.856" font-size="64" class="clef"></text>
<text x="258.4" y="1050.24" font-size="64" class="clef"></text>
<text x="258.4" y="1210.624" font-size="64" class="clef"></text>
<text x="258.4" y="1371.008" font-size="64" class="clef"></text>
<text x="258.4" y="1531.392" font-size="64" class="clef"></text>
<text x="258.4" y="1638.272" font-size="64" class="clef"></text>
<line x1="415.2" y1="841.856" x2="415.2" y2="1226.624" stroke-width="2.56" class="barline"></line>
<line x1="415.2" y1="841.856" x2="415.2" y2="1387.008" stroke-width="2.56" class="barline"></line>
<line x1="415.2" y1="1483.392" x2="415.2" y2="1686.272" stroke-width="2.56" class="barline"></line>
<line x1="415.2" y1="841.856" x2="533.6" y2="841.856" stroke-width="2.08" class="staff-line"></line>
<line x1="415.2" y1="857.856" x2="533.6" y2="857.856" stroke-width="2.08" class="staff-line"></line>
<line x1="415.2" y1="873.856" x2="533.6" y2="873.856" stroke-width="2.08" class="staff-line"></line>
<line x1="415.2" y1="889.856" x2="533.6" y2="889.856" stroke-width="2.08" class="staff-line"></line>
<line x1="415.2" y1="905.856" x2="533.6" y2="905.856" stroke-width="2.08" class="staff-line"></line>
<line x1="415.2" y1="1002.24" x2="533.6" y2="1002.24" stroke-width="2.08" class="staff-line"></line>
<line x1="415.2" y1="1018.24" x2="533.6" y2="1018.24" stroke-width="2.08" class="staff-line"></line>
<line x1="415.2" y1="1034.24" x2="533.6" y2="1034.24" stroke-width="2.08" class="staff-line"></line>
<line x1="415.2" y1="1050.24" x2="533.6" y2="1050.24" stroke-width="2.08" class="staff-line"></line>
<line x1="415.2" y1="1066.24" x2="533.6" y2="1066.24" stroke-width="2.08" class="staff-line"></line>
<line x1="415.2" y1="1162.624" x2="533.6" y2="1162.624" stroke-width="2.08" class="staff-line"></line>
<line x1="415.2" y1="1178.624" x2="533.6" y2="1178.624" stroke-width="2.08" class="staff-line"></line>
<line x1="415.2" y1="1194.624" x2="533.6" y2="1194.624" stroke-width="2.08" class="staff-line"></line>
<line x1="415.2" y1="1210.624" x2="533.6" y2="1210.624" stroke-width="2.08" class="staff-line"></line>
<line x1="415.2" y1="1226.624" x2="533.6" y2="1226.624" stroke-width="2.08" class="staff-line"></line>
<line x1="415.2" y1="1323.008" x2="533.6" y2="1323.008" stroke-width="2.08" class="staff-line"></line>
<line x1="415.2" y1="1339.008" x2="533.6" y2="1339.008" stroke-width="2.08" class="staff-line"></line>
<line x1="415.2" y1="1355.008" x2="533.6" y2="1355.008" stroke-width="2.08" class="staff-line"></line>
<line x1="415.2" y1="1371.008" x2="533.6" y2="1371.008" stroke-width="2.08" class="staff-line"></line>
<line x1="415.2" y1="1387.008" x2="533.6" y2="1387.008" stroke-width="2.08" class="staff-line"></line>
<line x1="415.2" y1="1483.392" x2="533.6" y2="1483.392" stroke-width="2.08" class="staff-line"></line>
<line x1="415.2" y1="1499.392" x2="533.6" y2="1499.392" stroke-width="2.08" class="staff-line"></line>
<line x1="415.2" y1="1515.392" x2="533.6" y2="1515.392" stroke-width="2.08" class="staff-line"></line>
<line x1="415.2" y1="1531.392" x2="533.6" y2="1531.392" stroke-width="2.08" class="staff-line"></line>
<line x1="415.2" y1="1547.392" x2="533.6" y2="1547.392" stroke-width="2.08" class="staff-line"></line>
<line x1="415.2" y1="1622.272" x2="533.6" y2="1622.272" stroke-width="2.08" class="staff-line"></line>
<line x1="415.2" y1="1638.272" x2="533.6" y2="1638.272" stroke-width="2.08" class="staff-line"></line>
<line x1="415.2" y1="1654.272" x2="533.6" y2="1654.272" stroke-width="2.08" class="staff-line"></line>
<line x1="415.2" y1="1670.272" x2="533.6" y2="1670.272" stroke-width="2.08" class="staff-line"></line>
<line x1="415.2" y1="1686.272" x2="533.6" y2="1686.272" stroke-width="2.08" class="staff-line"></line>
<line x1="533.6" y1="841.856" x2="533.6" y2="1226.624" stroke-width="2.56" class="barline"></line>
<line x1="533.6" y1="841.856" x2="533.6" y2="1387.008" stroke-width="2.56" class="barline"></line>
<line x1="533.6" y1="1483.392" x2="533.6" y2="1686.272" stroke-width="2.56" class="barline"></line>
<line x1="533.6" y1="841.856" x2="652" y2="841.856" stroke-width="2.08" class="staff-line"></line>
<line x1="533.6" y1="857.856" x2="652" y2="857.856" stroke-width="2.08" class="staff-line"></line>
<line x1="533.6" y1="873.856" x2="652" y2="873.856" stroke-width="2.08" class="staff-line"></line>
<line x1="533.6" y1="889.856" x2="652" y2="889.856" stroke-width="2.08" class="staff-line"></line>
<line x1="533.6" y1="905.856" x2="652" y2="905.856" stroke-width="2.08" class="staff-line"></line>
<line x1="533.6" y1="1002.24" x2="652" y2="1002.24" stroke-width="2.08" class="staff-line"></line>
<line x1="533.6" y1="1018.24" x2="652" y2="1018.24" stroke-width="2.08" class="staff-line"></line>
<line x1="533.6" y1="1034.24" x2="652" y2="1034.24" stroke-width="2.08" class="staff-line"></line>
<line x1="533.6" y1="1050.24" x2="652" y2="1050.24" stroke-width="2.08" class="staff-line"></line>
<line x1="533.6" y1="1066.24" x2="652" y2="1066.24" stroke-width="2.08" class="staff-line"></line>
<line x1="533.6" y1="1162.624" x2="652" y2="1162.624" stroke-width="2.08" class="staff-line"></line>
<line x1="533.6" y1="1178.624" x2="652" y2="1178.624" stroke-width="2.08" class="staff-line"></line>
<line x1="533.6" y1="1194.624" x2="652" y2="1194.624" stroke-width="2.08" class="staff-line"></line>
<line x1="533.6" y1="1210.624" x2="652" y2="1210.624" stroke-width="2.08" class="staff-line"></line>
<line x1="533.6" y1="1226.624" x2="652" y2="1226.624" stroke-width="2.08" class="staff-line"></line>
<line x1="533.6" y1="1323.008" x2="652" y2="1323.008" stroke-width="2.08" class="staff-line"></line>
<line x1="533.6" y1="1339.008" x2="652" y2="1339.008" stroke-width="2.08" class="staff-line"></line>
<line x1="533.6" y1="1355.008" x2="652" y2="1355.008" stroke-width="2.08" class="staff-line"></line>
<line x1="533.6" y1="1371.008" x2="652" y2="1371.008" stroke-width="2.08" class="staff-line"></line>
<line x1="533.6" y1="1387.008" x2="652" y2="1387.008" stroke-width="2.08" class="staff-line"></line>
<line x1="533.6" y1="1483.392" x2="652" y2="1483.392" stroke-width="2.08" class="staff-line"></line>
<line x1="533.6" y1="1499.392" x2="652" y2="1499.392" stroke-width="2.08" class="staff-line"></line>
<line x1="533.6" y1="1515.392" x2="652" y2="1515.392" stroke-width="2.08" class="staff-line"></line>
<line x1="533.6" y1="1531.392" x2="652" y2="1531.392" stroke-width="2.08" class="staff-line"></line>
<line x1="533.6" y1="1547.392" x2="652" y2="1547.392" stroke-width="2.08" class="staff-line"></line>
<line x1="533.6" y1="1622.272" x2="652" y2="1622.272" stroke-width="2.08" class="staff-line"></line>
<line x1="533.6" y1="1638.272" x2="652" y2="1638.272" stroke-width="2.08" class="staff-line"></line>
<line x1="533.6" y1="1654.272" x2="652" y2="1654.272" stroke-width="2.08" class="staff-line"></line>
<line x1="533.6" y1="1670.272" x2="652" y2="1670.272" stroke-width="2.08" class="staff-line"></line>
<line x1="533.6" y1="1686.272" x2="652" y2="1686.272" stroke-width="2.08" class="staff-line"></line>
<line x1="652" y1="841.856" x2="652" y2="1226.624" stroke-width="2.56" class="barline"></line>
<line x1="652" y1="841.856" x2="652" y2="1387.008" stroke-width="2.56" class="barline"></line>
<line x1="652" y1="1483.392" x2="652" y2="1686.272" stroke-width="2.56" class="barline"></line>
<line x1="652" y1="841.856" x2="770.4" y2="841.856" stroke-width="2.08" class="staff-line"></line>
<line x1="652" y1="857.856" x2="770.4" y2="857.856" stroke-width="2.08" class="staff-line"></line>
<line x1="652" y1="873.856" x2="770.4" y2="873.856" stroke-width="2.08" class="staff-line"></line>
<line x1="652" y1="889.856" x2="770.4" y2="889.856" stroke-width="2.08" class="staff-line"></line>
<line x1="652" y1="905.856" x2="770.4" y2="905.856" stroke-width="2.08" class="staff-line"></line>
<line x1="652" y1="1002.24" x2="770.4" y2="1002.24" stroke-width="2.08" class="staff-line"></line>
<line x1="652" y1="1018.24" x2="770.4" y2="1018.24" stroke-width="2.08" class="staff-line"></line>
<line x1="652" y1="1034.24" x2="770.4" y2="1034.24" stroke-width="2.08" class="staff-line"></line>
<line x1="652" y1="1050.24" x2="770.4" y2="1050.24" stroke-width="2.08" class="staff-line"></line>
<line x1="652" y1="1066.24" x2="770.4" y2="1066.24" stroke-width="2.08" class="staff-line"></line>
<line x1="652" y1="1162.624" x2="770.4" y2="1162.624" stroke-width="2.08" class="staff-line"></line>
<line x1="652" y1="1178.624" x2="770.4" y2="1178.624" stroke-width="2.08" class="staff-line"></line>
<line x1="652" y1="1194.624" x2="770.4" y2="1194.624" stroke-width="2.08" class="staff-line"></line>
<line x1="652" y1="1210.624" x2="770.4" y2="1210.624" stroke-width="2.08" class="staff-line"></line>
<line x1="652" y1="1226.624" x2="770.4" y2="1226.624" stroke-width="2.08" class="staff-line"></line>
<line x1="652" y1="1323.008" x2="770.4" y2="1323.008" stroke-width="2.08" class="staff-line"></line>
<line x1="652" y1="1339.008" x2="770.4" y2="1339.008" stroke-width="2.08" class="staff-line"></line>
<line x1="652" y1="1355.008" x2="770.4" y2="1355.008" stroke-width="2.08" class="staff-line"></line>
<line x1="652" y1="1371.008" x2="770.4" y2="1371.008" stroke-width="2.08" class="staff-line"></line>
<line x1="652" y1="1387.008" x2="770.4" y2="1387.008" stroke-width="2.08" class="staff-line"></line>
<line x1="652" y1="1483.392" x2="770.4" y2="1483.392" stroke-width="2.08" class="staff-line"></line>
<line x1="652" y1="1499.392" x2="770.4" y2="1499.392" stroke-width="2.08" class="staff-line"></line>
<line x1="652" y1="1515.392" x2="770.4" y2="1515.392" stroke-width="2.08" class="staff-line"></line>
<line x1="652" y1="1531.392" x2="770.4" y2="1531.392" stroke-width="2.08" class="staff-line"></line>
<line x1="652" y1="1547.392" x2="770.4" y2="1547.392" stroke-width="2.08" class="staff-line"></line>
<line x1="652" y1="1622.272" x2="770.4" y2="1622.272" stroke-width="2.08" class="staff-line"></line>
<line x1="652" y1="1638.272" x2="770.4" y2="1638.272" stroke-width="2.08" class="staff-line"></line>
<line x1="652" y1="1654.272" x2="770.4" y2="1654.272" stroke-width="2.08" class="staff-line"></line>
<line x1="652" y1="1670.272" x2="770.4" y2="1670.272" stroke-width="2.08" class="staff-line"></line>
<line x1="652" y1="1686.272" x2="770.4" y2="1686.272" stroke-width="2.08" class="staff-line"></line>
<line x1="757.6" y1="841.856" x2="757.6" y2="1226.624" stroke-width="2.56" class="barline barline-final-thin"></line>
<rect x="762.4" y="841.856" width="8" height="384.768" fill="currentColor" class="barline barline-final-thick"></rect>
<line x1="757.6" y1="841.856" x2="757.6" y2="1387.008" stroke-width="2.56" class="barline barline-final-thin"></line>
<rect x="762.4" y="841.856" width="8" height="545.152" fill="currentColor" class="barline barline-final-thick"></rect>
<line x1="757.6" y1="1483.392" x2="757.6" y2="1686.272" stroke-width="2.56" class="barline barline-final-thin"></line>
<rect x="762.4" y="1483.392" width="8" height="202.88" fill="currentColor" class="barline barline-final-thick"></rect>
</svg>
