<svg width="1001.6875" height="85.07" viewBox="0 56.25 1001.6875 85.07" class="mnx-notation-svg"><g class="enclosure enc-cell"><rect x="103.96443462371826" y="98.5" width="23" height="23" rx="3" stroke-width="1.2" data-projection="notation" data-system-row="0"></rect></g><style>:where(svg&gt;text){font-family:Bravura;fill:currentColor}:where(svg&gt;line,svg&gt;path){stroke:currentColor}</style><line x1="18.1818" y1="80" x2="221.6828" y2="80" stroke-width="1.3" class="staff-line"></line><line x1="18.1818" y1="90" x2="221.6828" y2="90" stroke-width="1.3" class="staff-line"></line><line x1="18.1818" y1="100" x2="221.6828" y2="100" stroke-width="1.3" class="staff-line"></line><line x1="18.1818" y1="110" x2="221.6828" y2="110" stroke-width="1.3" class="staff-line"></line><line x1="18.1818" y1="120" x2="221.6828" y2="120" stroke-width="1.3" class="staff-line"></line><text x="20.6818" y="110" font-size="40" class="clef"></text><text x="62.5909" y="90" font-size="40" text-anchor="middle" class="time-sig-num"></text><text x="62.5909" y="110" font-size="40" text-anchor="middle" class="time-sig-den"></text><text x="98.1002" y="110" font-size="40" style="fill:oklch(0.7 0.15 190)" class="accidental selected"></text><text x="109.4639" y="110" font-size="40" style="fill:oklch(0.7 0.15 190)" class="notehead selected" data-source-id="n-1-1-v1-0-0"></text><line x1="121.2639" y1="75" x2="121.2639" y2="108.32" stroke-width="1.2" style="stroke:oklch(0.7 0.15 190)" class="stem selected"></line><text x="167.9189" y="110" font-size="40" class="accidental"></text><text x="179.2825" y="110" font-size="40" class="notehead" data-source-id="n-1-1-v1-1-0"></text><line x1="191.0825" y1="75" x2="191.0825" y2="108.32" stroke-width="1.2" class="stem"></line><line x1="221.6828" y1="80" x2="221.6828" y2="120" stroke-width="1.6" class="barline"></line><text x="20.1818" y="71" font-size="13" style="font-family:var(--font-family-sans)" class="measure-number">1</text><line x1="221.6828" y1="80" x2="374.0473" y2="80" stroke-width="1.3" class="staff-line"></line><line x1="221.6828" y1="90" x2="374.0473" y2="90" stroke-width="1.3" class="staff-line"></line><line x1="221.6828" y1="100" x2="374.0473" y2="100" stroke-width="1.3" class="staff-line"></line><line x1="221.6828" y1="110" x2="374.0473" y2="110" stroke-width="1.3" class="staff-line"></line><line x1="221.6828" y1="120" x2="374.0473" y2="120" stroke-width="1.3" class="staff-line"></line><text x="250.4648" y="110" font-size="40" class="accidental"></text><text x="261.8285" y="110" font-size="40" class="notehead" data-source-id="n-1-2-v1-0-0"></text><line x1="273.6285" y1="75" x2="273.6285" y2="108.32" stroke-width="1.2" class="stem"></line><text x="320.2835" y="110" font-size="40" class="accidental"></text><text x="331.6471" y="110" font-size="40" class="notehead" data-source-id="n-1-2-v1-1-0"></text><line x1="343.4471" y1="75" x2="343.4471" y2="108.32" stroke-width="1.2" class="stem"></line><line x1="374.0473" y1="80" x2="374.0473" y2="120" stroke-width="1.6" class="barline"></line><line x1="374.0473" y1="80" x2="526.4119" y2="80" stroke-width="1.3" class="staff-line"></line><line x1="374.0473" y1="90" x2="526.4119" y2="90" stroke-width="1.3" class="staff-line"></line><line x1="374.0473" y1="100" x2="526.4119" y2="100" stroke-width="1.3" class="staff-line"></line><line x1="374.0473" y1="110" x2="526.4119" y2="110" stroke-width="1.3" class="staff-line"></line><line x1="374.0473" y1="120" x2="526.4119" y2="120" stroke-width="1.3" class="staff-line"></line><text x="402.8294" y="110" font-size="40" class="accidental"></text><text x="414.193" y="110" font-size="40" class="notehead" data-source-id="n-1-3-v1-0-0"></text><line x1="425.993" y1="75" x2="425.993" y2="108.32" stroke-width="1.2" class="stem"></line><text x="472.6481" y="110" font-size="40" class="accidental"></text><text x="484.0117" y="110" font-size="40" class="notehead" data-source-id="n-1-3-v1-1-0"></text><line x1="495.8117" y1="75" x2="495.8117" y2="108.32" stroke-width="1.2" class="stem"></line><line x1="526.4119" y1="80" x2="526.4119" y2="120" stroke-width="1.6" class="barline"></line><line x1="526.4119" y1="80" x2="678.7765" y2="80" stroke-width="1.3" class="staff-line"></line><line x1="526.4119" y1="90" x2="678.7765" y2="90" stroke-width="1.3" class="staff-line"></line><line x1="526.4119" y1="100" x2="678.7765" y2="100" stroke-width="1.3" class="staff-line"></line><line x1="526.4119" y1="110" x2="678.7765" y2="110" stroke-width="1.3" class="staff-line"></line><line x1="526.4119" y1="120" x2="678.7765" y2="120" stroke-width="1.3" class="staff-line"></line><text x="555.194" y="110" font-size="40" class="accidental"></text><text x="566.5576" y="110" font-size="40" class="notehead" data-source-id="n-1-4-v1-0-0"></text><line x1="578.3576" y1="75" x2="578.3576" y2="108.32" stroke-width="1.2" class="stem"></line><text x="625.0126" y="110" font-size="40" class="accidental"></text><text x="636.3763" y="110" font-size="40" class="notehead" data-source-id="n-1-4-v1-1-0"></text><line x1="648.1763" y1="75" x2="648.1763" y2="108.32" stroke-width="1.2" class="stem"></line><line x1="678.7765" y1="80" x2="678.7765" y2="120" stroke-width="1.6" class="barline"></line><line x1="678.7765" y1="80" x2="831.1411" y2="80" stroke-width="1.3" class="staff-line"></line><line x1="678.7765" y1="90" x2="831.1411" y2="90" stroke-width="1.3" class="staff-line"></line><line x1="678.7765" y1="100" x2="831.1411" y2="100" stroke-width="1.3" class="staff-line"></line><line x1="678.7765" y1="110" x2="831.1411" y2="110" stroke-width="1.3" class="staff-line"></line><line x1="678.7765" y1="120" x2="831.1411" y2="120" stroke-width="1.3" class="staff-line"></line><text x="707.5586" y="110" font-size="40" class="accidental"></text><text x="718.9222" y="110" font-size="40" class="notehead" data-source-id="n-1-5-v1-0-0"></text><line x1="730.7222" y1="75" x2="730.7222" y2="108.32" stroke-width="1.2" class="stem"></line><text x="777.3772" y="110" font-size="40" class="accidental"></text><text x="788.7409" y="110" font-size="40" class="notehead" data-source-id="n-1-5-v1-1-0"></text><line x1="800.5409" y1="75" x2="800.5409" y2="108.32" stroke-width="1.2" class="stem"></line><line x1="831.1411" y1="80" x2="831.1411" y2="120" stroke-width="1.6" class="barline"></line><line x1="831.1411" y1="80" x2="983.5057" y2="80" stroke-width="1.3" class="staff-line"></line><line x1="831.1411" y1="90" x2="983.5057" y2="90" stroke-width="1.3" class="staff-line"></line><line x1="831.1411" y1="100" x2="983.5057" y2="100" stroke-width="1.3" class="staff-line"></line><line x1="831.1411" y1="110" x2="983.5057" y2="110" stroke-width="1.3" class="staff-line"></line><line x1="831.1411" y1="120" x2="983.5057" y2="120" stroke-width="1.3" class="staff-line"></line><text x="859.9232" y="110" font-size="40" class="accidental"></text><text x="871.2868" y="110" font-size="40" class="notehead" data-source-id="n-1-6-v1-0-0"></text><line x1="883.0868" y1="75" x2="883.0868" y2="108.32" stroke-width="1.2" class="stem"></line><text x="929.7418" y="110" font-size="40" class="accidental"></text><text x="941.1054" y="110" font-size="40" class="notehead" data-source-id="n-1-6-v1-1-0"></text><line x1="952.9054" y1="75" x2="952.9054" y2="108.32" stroke-width="1.2" class="stem"></line><line x1="975.5057" y1="80" x2="975.5057" y2="120" stroke-width="1.6" class="barline barline-final-thin"></line><rect x="978.5057" y="80" width="5" height="40" fill="currentColor" class="barline barline-final-thick"></rect></svg>