<svg width="1280" height="320" viewBox="0 0 1280 320" xmlns="http://www.w3.org/2000/svg">
<style>:where(svg>text){font-family:Bravura;fill:currentColor}:where(svg>line,svg>path){stroke:currentColor}</style>
<line x1="32" y1="128" x2="584.8" y2="128" stroke-width="2.08" class="staff-line"></line>
<line x1="32" y1="144" x2="584.8" y2="144" stroke-width="2.08" class="staff-line"></line>
<line x1="32" y1="160" x2="584.8" y2="160" stroke-width="2.08" class="staff-line"></line>
<line x1="32" y1="176" x2="584.8" y2="176" stroke-width="2.08" class="staff-line"></line>
<line x1="32" y1="192" x2="584.8" y2="192" stroke-width="2.08" class="staff-line"></line>
<text x="36" y="176" font-size="64" class="clef"></text>
<text x="104" y="144" font-size="64" text-anchor="middle" class="time-sig-num"></text>
<text x="104" y="176" font-size="64" text-anchor="middle" class="time-sig-den"></text>
<line x1="164.16" y1="208" x2="195.84" y2="208" stroke-width="2.56" class="ledger-line"></line>
<text x="170.56" y="208" font-size="64" class="notehead" data-source-id="@m0.v0.e0.n0"></text>
<line x1="189.44" y1="152" x2="189.44" y2="205.312" stroke-width="1.92" class="stem"></line>
<text x="282.56" y="200" font-size="64" class="notehead" data-source-id="@m0.v0.e1.n0"></text>
<line x1="301.44" y1="144" x2="301.44" y2="197.312" stroke-width="1.92" class="stem"></line>
<text x="394.56" y="192" font-size="64" class="notehead" data-source-id="@m0.v0.e2.n0"></text>
<line x1="413.44" y1="136" x2="413.44" y2="189.312" stroke-width="1.92" class="stem"></line>
<text x="506.56" y="184" font-size="64" class="notehead" data-source-id="@m0.v0.e3.n0"></text>
<line x1="525.44" y1="128" x2="525.44" y2="181.312" stroke-width="1.92" class="stem"></line>
<line x1="584.8" y1="128" x2="584.8" y2="192" stroke-width="2.56" class="barline"></line>
<line x1="584.8" y1="128" x2="1055.2" y2="128" stroke-width="2.08" class="staff-line"></line>
<line x1="584.8" y1="144" x2="1055.2" y2="144" stroke-width="2.08" class="staff-line"></line>
<line x1="584.8" y1="160" x2="1055.2" y2="160" stroke-width="2.08" class="staff-line"></line>
<line x1="584.8" y1="176" x2="1055.2" y2="176" stroke-width="2.08" class="staff-line"></line>
<line x1="584.8" y1="192" x2="1055.2" y2="192" stroke-width="2.08" class="staff-line"></line>
<text x="640.96" y="176" font-size="64" class="notehead" data-source-id="@m1.v0.e0.n0"></text>
<line x1="659.84" y1="120" x2="659.84" y2="173.312" stroke-width="1.92" class="stem"></line>
<text x="752.96" y="168" font-size="64" class="notehead" data-source-id="@m1.v0.e1.n0"></text>
<line x1="771.84" y1="112" x2="771.84" y2="165.312" stroke-width="1.92" class="stem"></line>
<text x="864.96" y="160" font-size="64" class="notehead" data-source-id="@m1.v0.e2.n0"></text>
<line x1="864.96" y1="162.688" x2="864.96" y2="216" stroke-width="1.92" class="stem"></line>
<text x="976.96" y="152" font-size="64" class="notehead" data-source-id="@m1.v0.e3.n0"></text>
<line x1="976.96" y1="154.688" x2="976.96" y2="208" stroke-width="1.92" class="stem"></line>
<line x1="1055.2" y1="128" x2="1055.2" y2="192" stroke-width="2.56" class="barline"></line>
</svg>
