<svg width="1280" height="320" viewBox="0 0 1280 320" xmlns="http://www.w3.org/2000/svg">
<style>:where(svg>text){font-family:Bravura;fill:currentColor}:where(svg>line,svg>path){stroke:currentColor}</style>
<line x1="32" y1="128" x2="584.8" y2="128" stroke-width="2.08" class="staff-line"></line>
<line x1="32" y1="144" x2="584.8" y2="144" stroke-width="2.08" class="staff-line"></line>
<line x1="32" y1="160" x2="584.8" y2="160" stroke-width="2.08" class="staff-line"></line>
<line x1="32" y1="176" x2="584.8" y2="176" stroke-width="2.08" class="staff-line"></line>
<line x1="32" y1="192" x2="584.8" y2="192" stroke-width="2.08" class="staff-line"></line>
<text x="36" y="176" font-size="64" class="clef"></text>
<text x="104" y="144" font-size="64" text-anchor="middle" class="time-sig-num"></text>
<text x="104" y="176" font-size="64" text-anchor="middle" class="time-sig-den"></text>
<text x="170.56" y="152" font-size="64" class="notehead" data-source-id="@m0.v0.e0.n0"></text>
<line x1="170.56" y1="154.688" x2="170.56" y2="208" stroke-width="1.92" class="stem"></line>
<text x="282.56" y="144" font-size="64" class="notehead" data-source-id="@m0.v0.e1.n0"></text>
<line x1="282.56" y1="146.688" x2="282.56" y2="200" stroke-width="1.92" class="stem"></line>
<text x="394.56" y="136" font-size="64" class="notehead" data-source-id="@m0.v0.e2.n0"></text>
<line x1="394.56" y1="138.688" x2="394.56" y2="192" stroke-width="1.92" class="stem"></line>
<text x="506.56" y="152" font-size="64" class="notehead" data-source-id="@m0.v0.e3.n0"></text>
<line x1="506.56" y1="154.688" x2="506.56" y2="208" stroke-width="1.92" class="stem"></line>
<line x1="584.8" y1="128" x2="584.8" y2="192" stroke-width="2.56" class="barline"></line>
<line x1="584.8" y1="128" x2="1055.2" y2="128" stroke-width="2.08" class="staff-line"></line>
<line x1="584.8" y1="144" x2="1055.2" y2="144" stroke-width="2.08" class="staff-line"></line>
<line x1="584.8" y1="160" x2="1055.2" y2="160" stroke-width="2.08" class="staff-line"></line>
<line x1="584.8" y1="176" x2="1055.2" y2="176" stroke-width="2.08" class="staff-line"></line>
<line x1="584.8" y1="192" x2="1055.2" y2="192" stroke-width="2.08" class="staff-line"></line>
<text x="640.96" y="176" font-size="64" class="notehead" data-source-id="@m1.v0.e0.n0"></text>
<line x1="659.84" y1="120" x2="659.84" y2="173.312" stroke-width="1.92" class="stem"></line>
<text x="752.96" y="168" font-size="64" class="notehead" data-source-id="@m1.v0.e1.n0"></text>
<line x1="771.84" y1="112" x2="771.84" y2="165.312" stroke-width="1.92" class="stem"></line>
<text x="864.96" y="176" font-size="64" class="notehead" data-source-id="@m1.v0.e2.n0"></text>
<line x1="883.84" y1="120" x2="883.84" y2="173.312" stroke-width="1.92" class="stem"></line>
<text x="976.96" y="192" font-size="64" class="notehead" data-source-id="@m1.v0.e3.n0"></text>
<line x1="995.84" y1="136" x2="995.84" y2="189.312" stroke-width="1.92" class="stem"></line>
<line x1="1042.4" y1="128" x2="1042.4" y2="192" stroke-width="2.56" class="barline barline-final-thin"></line>
<rect x="1047.2" y="128" width="8" height="64" fill="currentColor" class="barline barline-final-thick"></rect>
<path d="M 183.2 139.2 C 282.08 102.72, 413.92 102.72, 512.8 139.2 C 413.92 105.28, 282.08 105.28, 183.2 139.2 Z" fill="currentColor" stroke-width="1.6" stroke-linejoin="round" class="slur"></path>
<path d="M 653.6 188.8 C 752.4179 225.2785, 884.2579 241.2785, 983.2 204.8 C 884.3821 238.7215, 752.5421 222.7215, 653.6 188.8 Z" fill="currentColor" stroke-width="1.6" stroke-linejoin="round" class="slur"></path>
</svg>
